<svg width="20" height="20" viewBox="0 0 20 20" fill="none" xmlns="http://www.w3.org/2000/svg">
<g id="Base/mail">
<g id="Vector">
<path fill-rule="evenodd" clip-rule="evenodd" d="M1.04163 3.75C1.04163 3.40482 1.32145 3.125 1.66663 3.125H18.3333C18.6785 3.125 18.9583 3.40482 18.9583 3.75V16.25C18.9583 16.5952 18.6785 16.875 18.3333 16.875H1.66663C1.32145 16.875 1.04163 16.5952 1.04163 16.25V3.75ZM2.29163 4.375V15.625H17.7083V4.375H2.29163Z" fill="#BCBCBC"/>
<path fill-rule="evenodd" clip-rule="evenodd" d="M1.16666 3.37504C1.37377 3.09889 1.76552 3.04293 2.04166 3.25004L10 9.21879L17.9583 3.25004C18.2345 3.04293 18.6262 3.09889 18.8333 3.37504C19.0404 3.65118 18.9845 4.04293 18.7083 4.25004L10.375 10.5C10.1528 10.6667 9.84722 10.6667 9.625 10.5L1.29166 4.25004C1.01552 4.04293 0.959556 3.65118 1.16666 3.37504Z" fill="#BCBCBC"/>
<path fill-rule="evenodd" clip-rule="evenodd" d="M1.04163 3.75C1.04163 3.40482 1.32145 3.125 1.66663 3.125H9.99996C10.3451 3.125 10.625 3.40482 10.625 3.75C10.625 4.09518 10.3451 4.375 9.99996 4.375H2.29163V10C2.29163 10.3452 2.0118 10.625 1.66663 10.625C1.32145 10.625 1.04163 10.3452 1.04163 10V3.75Z" fill="#BCBCBC"/>
<path fill-rule="evenodd" clip-rule="evenodd" d="M9.37496 3.75C9.37496 3.40482 9.65478 3.125 9.99996 3.125H18.3333C18.6785 3.125 18.9583 3.40482 18.9583 3.75V10C18.9583 10.3452 18.6785 10.625 18.3333 10.625C17.9881 10.625 17.7083 10.3452 17.7083 10V4.375H9.99996C9.65478 4.375 9.37496 4.09518 9.37496 3.75Z" fill="#BCBCBC"/>
</g>
</g>
</svg>
