<svg width="20" height="20" viewBox="0 0 20 20" fill="none" xmlns="http://www.w3.org/2000/svg">
<g id="Base/phone-telephone">
<path id="Vector" d="M4.88271 3.93316C4.21081 3.93316 3.79168 4.53524 3.98363 5.10411C4.67186 7.1438 5.95437 10.2122 7.86703 12.1248C9.77966 14.0375 12.8481 15.32 14.8878 16.0082C15.4566 16.2002 16.0587 15.7811 16.0587 15.1091V13.038C16.0587 12.9639 16.0185 12.8957 15.9538 12.8597L14.1497 11.8566C14.0908 11.8239 14.0195 11.8223 13.9593 11.8525L12.0353 12.8144C11.915 12.8746 11.7782 12.8934 11.6461 12.8681L11.7615 12.2667C11.6461 12.8681 11.6461 12.8681 11.6461 12.8681L11.6444 12.8678L11.6421 12.8673L11.6359 12.8661L11.6175 12.8622C11.6025 12.8591 11.5822 12.8546 11.557 12.8486C11.5066 12.8367 11.4366 12.8189 11.3502 12.794C11.1778 12.7442 10.9389 12.6655 10.6613 12.5472C10.1084 12.3116 9.38664 11.9125 8.733 11.2589C8.07945 10.6053 7.67924 9.88256 7.44253 9.32888C7.32365 9.0508 7.24432 8.81146 7.19411 8.63875C7.16897 8.55226 7.15101 8.4821 7.13897 8.43168C7.13295 8.40645 7.1284 8.38613 7.12516 8.37114L7.12127 8.35268L7.12003 8.34654L7.11958 8.34426L7.11939 8.34332C7.11939 8.34332 7.11923 8.34251 7.7203 8.2256L7.11939 8.34332C7.0936 8.21074 7.11221 8.07256 7.17261 7.95176L8.13471 6.02752C8.16481 5.96732 8.16331 5.89607 8.13062 5.83715V5.83715L7.13197 4.03825C7.09594 3.97336 7.02758 3.93316 6.9535 3.93316H4.88271ZM8.36979 8.29583L8.37008 8.29685C8.40861 8.42937 8.47192 8.62132 8.5686 8.84746C8.76301 9.3022 9.08564 9.87958 9.59895 10.3929V10.3929M9.59895 10.3929C10.1122 10.9061 10.6882 11.2275 11.1414 11.4206C11.3667 11.5166 11.5579 11.5793 11.6898 11.6174V11.6174L13.4115 10.7571V10.7571C13.8335 10.5461 14.3325 10.557 14.7448 10.7863L16.5488 11.7893C17.0023 12.0413 17.2834 12.5193 17.2834 13.038V15.1091C17.2834 16.5466 15.9261 17.6511 14.4963 17.1686C12.4309 16.4717 9.12723 15.117 7.00108 12.9908C4.87488 10.8646 3.52011 7.56094 2.82324 5.49564C2.34079 4.06578 3.44522 2.7085 4.88271 2.7085H6.9535C7.47256 2.7085 7.95073 2.99003 8.20265 3.44374L9.20135 5.24274C9.43015 5.65491 9.44097 6.1535 9.23006 6.57524L8.36979 8.29583" fill="#BCBCBC"/>
</g>
</svg>
