<svg width="27" height="20" viewBox="0 0 27 20" fill="none" xmlns="http://www.w3.org/2000/svg">
<g id="Group">
<g id="Group_2">
<path id="Vector" d="M1.09112 7.91033C0.509598 8.07947 0.0970118 8.47565 0.0146643 8.94321C-0.0668342 9.41141 0.195489 9.87511 0.698912 10.1523L6.21025 13.1905L25.7852 1.52332L8.47608 14.442L16.0104 18.5954C16.4893 18.8591 17.1081 18.9382 17.6778 18.8077C18.2466 18.6765 18.6999 18.3491 18.9036 17.9279L26.9635 1.21525C27.045 1.04546 26.9873 0.855739 26.8175 0.729041C26.6486 0.602342 26.3981 0.562468 26.174 0.627425L1.09112 7.91033Z" fill="#1D4ED8"/>
<path id="Vector_2" d="M4.90112 14.2012L4.94781 14.3948L6.01748 18.8253C6.09728 19.1546 6.38762 19.4305 6.79172 19.5637C7.19582 19.6961 7.66189 19.6678 8.03202 19.4871C9.52192 18.7591 11.4677 17.7931 11.4151 17.7365L4.90112 14.2012Z" fill="#1D4ED8"/>
</g>
</g>
</svg>
