<svg width="134" height="17" viewBox="0 0 134 17" fill="none" xmlns="http://www.w3.org/2000/svg">
<g id="Frame" clip-path="url(#clip0_4_414)">
<g id="Group">
<path id="Vector" d="M67.0017 14.3966L62.1117 16.9224C61.6326 17.1708 61.0714 16.7708 61.1633 16.245L62.0986 10.8934L58.1407 7.10303C57.7535 6.73207 57.9668 6.08368 58.5017 6.00626L63.9693 5.22561L66.4142 0.354647C66.6538 -0.122773 67.3462 -0.122773 67.5858 0.354647L70.0308 5.22561L75.4983 6.00626C76.0332 6.08368 76.2465 6.72884 75.8593 7.10303L71.9014 10.8934L72.8367 16.245C72.9286 16.7708 72.3674 17.1708 71.8883 16.9224L66.9984 14.3934L67.0017 14.3966Z" fill="#FFD782"/>
<path id="Vector_2" d="M95.9703 14.3966L91.0804 16.9224C90.6012 17.1708 90.04 16.7708 90.1319 16.245L91.0672 10.8934L87.1094 7.10303C86.7221 6.73207 86.9354 6.08368 87.4704 6.00626L92.9379 5.22561L95.3828 0.354647C95.6224 -0.122773 96.3149 -0.122773 96.5544 0.354647L98.9994 5.22561L104.467 6.00626C105.002 6.08368 105.215 6.72884 104.828 7.10303L100.87 10.8934L101.805 16.245C101.897 16.7708 101.336 17.1708 100.857 16.9224L95.967 14.3966H95.9703Z" fill="#FFD782"/>
</g>
<path id="Vector_3" d="M124.942 14.3966L120.052 16.9224C119.573 17.1708 119.012 16.7708 119.104 16.245L120.039 10.8934L116.081 7.10303C115.694 6.73207 115.907 6.08368 116.442 6.00626L121.91 5.22561L124.355 0.354647C124.594 -0.122773 125.287 -0.122773 125.526 0.354647L127.971 5.22561L133.439 6.00626C133.974 6.08368 134.187 6.72884 133.8 7.10303L129.842 10.8934L130.777 16.245C130.869 16.7708 130.308 17.1708 129.829 16.9224L124.939 14.3966H124.942Z" fill="#C7CFE2"/>
<g id="Group_2">
<path id="Vector_4" d="M9.05781 14.3968L4.16789 16.9226C3.68875 17.171 3.12756 16.771 3.21945 16.2452L4.15477 10.8935L0.196892 7.10323C-0.190363 6.73226 0.0229556 6.08387 0.557892 6.00645L6.0254 5.22581L8.47364 0.358065C8.71322 -0.119355 9.40568 -0.119355 9.64525 0.358065L12.0902 5.22903L17.5577 6.00968C18.0927 6.0871 18.306 6.73226 17.9187 7.10645L13.9608 10.8968L14.8962 16.2484C14.9881 16.7742 14.4269 17.1742 13.9477 16.9258L9.05781 14.4V14.3968Z" fill="#FFD782"/>
<path id="Vector_5" d="M38.0297 14.3966L33.1398 16.9224C32.6607 17.1708 32.0995 16.7708 32.1914 16.245L33.1267 10.8934L29.1688 7.10303C28.7816 6.73207 28.9949 6.08368 29.5298 6.00626L34.9973 5.22561L37.4423 0.354647C37.6819 -0.122773 38.3743 -0.122773 38.6139 0.354647L41.0589 5.22561L46.5264 6.00626C47.0613 6.08368 47.2746 6.72884 46.8874 7.10303L42.9295 10.8934L43.8648 16.245C43.9567 16.7708 43.3955 17.1708 42.9164 16.9224L38.0264 14.3966H38.0297Z" fill="#FFD782"/>
</g>
</g>
<defs>
<clipPath id="clip0_4_414">
<rect width="134" height="17" fill="white"/>
</clipPath>
</defs>
</svg>
