<svg width="19" height="21" viewBox="0 0 19 21" fill="none" xmlns="http://www.w3.org/2000/svg">
<g id="linkedin-in 1" clip-path="url(#clip0_19_116)">
<path id="Vector" d="M4.3949 18.1809H0.56672V6.19549H4.3949V18.1809ZM2.47875 4.56057C1.25462 4.56057 0.261719 3.57481 0.261719 2.38469C0.261719 1.81303 0.495298 1.26479 0.911072 0.860563C1.32685 0.456339 1.89076 0.229248 2.47875 0.229248C3.06674 0.229248 3.63065 0.456339 4.04643 0.860563C4.4622 1.26479 4.69578 1.81303 4.69578 2.38469C4.69578 3.57481 3.70246 4.56057 2.47875 4.56057ZM18.7225 18.1809H14.9026V12.3465C14.9026 10.956 14.8738 9.1728 12.9123 9.1728C10.9219 9.1728 10.6169 10.6835 10.6169 12.2463V18.1809H6.79287V6.19549H10.4644V7.83041H10.518C11.0291 6.88873 12.2775 5.89495 14.1401 5.89495C18.0144 5.89495 18.7267 8.37538 18.7267 11.5971V18.1809H18.7225Z" fill="white"/>
</g>
<defs>
<clipPath id="clip0_19_116">
<rect width="18.4649" height="20.5166" fill="white" transform="translate(0.261719 0.228516)"/>
</clipPath>
</defs>
</svg>
