<svg width="22" height="21" viewBox="0 0 22 21" fill="none" xmlns="http://www.w3.org/2000/svg">
<g id="twitter 1">
<path id="Vector" d="M18.6905 6.88508C18.7028 7.04215 18.7028 7.19926 18.7028 7.35633C18.7028 12.1473 14.6835 17.6675 7.3373 17.6675C5.07408 17.6675 2.97165 17.0728 1.20312 16.0406C1.52469 16.0743 1.83384 16.0855 2.16777 16.0855C4.0352 16.0855 5.75428 15.5133 7.12705 14.5372C5.37089 14.5035 3.89918 13.46 3.39211 12.0239C3.63948 12.0575 3.88681 12.0799 4.14655 12.0799C4.50519 12.0799 4.86386 12.0351 5.19776 11.9565C3.36741 11.6199 1.9946 10.1613 1.9946 8.39979V8.35493C2.52637 8.62421 3.14479 8.79251 3.8002 8.81492C2.72425 8.16415 2.01934 7.05338 2.01934 5.79673C2.01934 5.12354 2.21718 4.50644 2.56349 3.96787C4.52989 6.16699 7.48569 7.60313 10.8001 7.76024C10.7383 7.49096 10.7011 7.21049 10.7011 6.92998C10.7011 4.93279 12.482 3.30591 14.6958 3.30591C15.8459 3.30591 16.8848 3.74349 17.6145 4.45035C18.5172 4.29328 19.3829 3.99032 20.1498 3.57519C19.8529 4.41671 19.2222 5.12357 18.3936 5.57234C19.1975 5.49384 19.9766 5.29184 20.6939 5.01136C20.1498 5.72942 19.4696 6.36893 18.6905 6.88508V6.88508Z" fill="white"/>
</g>
</svg>
