<svg width="17" height="16" viewBox="0 0 17 16" fill="none" xmlns="http://www.w3.org/2000/svg">
<g id="twitter 1">
<path id="Vector" d="M14.4582 4.99061C14.4677 5.12186 14.4677 5.25313 14.4677 5.38437C14.4677 9.38748 11.3744 14 5.72083 14C3.97906 14 2.36105 13.5031 1 12.6406C1.24747 12.6687 1.48539 12.6781 1.74239 12.6781C3.17955 12.6781 4.50254 12.2 5.55902 11.3844C4.20749 11.3563 3.07487 10.4844 2.68464 9.28437C2.87501 9.31248 3.06535 9.33124 3.26524 9.33124C3.54125 9.33124 3.81729 9.29372 4.07425 9.22813C2.66562 8.94686 1.60911 7.72812 1.60911 6.25624V6.21876C2.01836 6.44376 2.49429 6.58438 2.9987 6.60311C2.17065 6.05935 1.62816 5.13124 1.62816 4.08123C1.62816 3.51874 1.78041 3.00311 2.04693 2.55311C3.56026 4.39061 5.83503 5.59059 8.38577 5.72186C8.33819 5.49686 8.30963 5.26251 8.30963 5.02813C8.30963 3.35936 9.6802 2 11.3839 2C12.269 2 13.0685 2.36562 13.6301 2.95625C14.3249 2.82501 14.9911 2.57187 15.5812 2.225C15.3528 2.92814 14.8674 3.51877 14.2297 3.89374C14.8484 3.82815 15.448 3.65936 16 3.42501C15.5813 4.02499 15.0578 4.55934 14.4582 4.99061V4.99061Z" fill="white"/>
</g>
</svg>
