<svg width="18" height="18" viewBox="0 0 18 18" fill="none" xmlns="http://www.w3.org/2000/svg">
<path id="Vector" d="M15.9322 7.08919V4.43345C15.9322 3.45563 15.1281 2.66295 14.1361 2.66295H3.35989C2.36796 2.66295 1.56384 3.45563 1.56384 4.43345V15.0564C1.56384 16.0343 2.36796 16.8269 3.35989 16.8269H6.05395M11.4421 0.892456V4.43345M6.05395 0.892456V4.43345M1.56384 7.97444H6.05395M12.3401 11.6925V13.1863L13.1483 14.0826M16.3812 13.2859C16.3812 15.486 14.572 17.2695 12.3401 17.2695C10.1083 17.2695 8.29901 15.486 8.29901 13.2859C8.29901 11.0858 10.1083 9.30231 12.3401 9.30231C14.572 9.30231 16.3812 11.0858 16.3812 13.2859Z" stroke="white" stroke-width="1.32576" stroke-linecap="round" stroke-linejoin="round"/>
</svg>
